<svg width="85" height="60" viewBox="0 0 85 60" fill="none" xmlns="http://www.w3.org/2000/svg">
<path d="M41.1866 3.36547C40.2573 3.36547 39.5039 2.61208 39.5039 1.68274C39.5039 0.753392 40.2573 7.62939e-06 41.1866 7.62939e-06C42.116 7.62939e-06 42.8693 0.753392 42.8693 1.68274C42.8693 2.61208 42.116 3.36547 41.1866 3.36547Z" fill="url(#paint0_linear_6126_1148)"/>
<path d="M41.2856 1.93077C40.8072 1.93077 40.4193 1.5429 40.4193 1.06444C40.4193 0.585979 40.8072 0.198109 41.2856 0.198109C41.7641 0.198109 42.152 0.585979 42.152 1.06444C42.152 1.5429 41.7641 1.93077 41.2856 1.93077Z" fill="url(#paint1_linear_6126_1148)"/>
<path d="M70.5737 26.2221C67.7714 26.2221 65.4997 23.9504 65.4997 21.1481C65.4997 18.3459 67.7714 16.0742 70.5737 16.0742C73.376 16.0742 75.6477 18.3459 75.6477 21.1481C75.6477 23.9504 73.376 26.2221 70.5737 26.2221Z" fill="#5D95F5"/>
<path d="M27.1781 27.071C25.5478 27.071 24.2262 25.7494 24.2262 24.1191C24.2262 22.4889 25.5478 21.1673 27.1781 21.1673C28.8083 21.1673 30.1299 22.4889 30.1299 24.1191C30.1299 25.7494 28.8083 27.071 27.1781 27.071Z" fill="#5D95F5"/>
<path d="M40.9302 12.8045C41.6093 13.0891 42.3574 13.4569 43.0365 13.8115L45.2152 15.0132L45.2186 15.0148H45.2202C45.2219 15.0157 45.2219 15.0157 45.2236 15.0165C45.5423 15.2146 45.8552 15.4201 46.1615 15.6348C48.1788 17.0329 49.948 18.729 51.3936 20.6264C51.8147 21.179 52.6502 21.2681 53.2502 20.7904C53.8428 20.3193 53.8869 19.4131 53.306 18.8738C51.3578 17.0679 49.1516 15.5965 46.8039 14.5072C45.6314 13.9588 44.4221 13.5193 43.1888 13.1665C42.4581 12.9676 41.6892 12.8186 40.9302 12.8045Z" fill="url(#paint2_linear_6126_1148)"/>
<path d="M50.9351 13.5302C52.2833 13.7549 53.9127 14.369 54.1632 14.4664C54.1865 14.4739 54.1973 14.4789 54.1973 14.4789C54.7117 14.662 55.216 14.865 55.707 15.0931C57.5853 15.9511 59.3038 17.0929 60.7818 18.4494C61.2145 18.843 61.9194 18.7931 62.3455 18.3087C62.7658 17.8294 62.6676 17.0729 62.1067 16.7134C60.2226 15.5075 58.1786 14.6179 56.0707 14.0636C55.0179 13.784 53.9518 13.6009 52.8758 13.4919C52.2367 13.4336 51.5726 13.4245 50.9351 13.5302Z" fill="url(#paint3_linear_6126_1148)"/>
<path d="M48.3894 47.9529C48.3478 47.9812 48.3095 48.0103 48.2687 48.0353H48.4534L48.3894 47.9529Z" fill="url(#paint4_linear_6126_1148)"/>
<path d="M8.14447 49.3444C12.8723 58.9897 28.0018 61.2699 41.9414 54.4375C43.3395 53.7526 44.6752 53.0028 45.9377 52.1938C47.1876 51.3483 48.371 50.4537 49.4854 49.515C47.7685 50.72 45.9094 51.8243 43.922 52.7997C29.6097 59.8136 14.074 57.4684 9.22052 47.5634C7.68176 44.4218 7.40463 40.8991 8.1969 37.3289L8.55309 35.9574C8.81689 35.0678 9.14561 34.1781 9.53675 33.2927C6.47505 38.7145 5.77017 44.4976 8.14447 49.3444Z" fill="#5D95F5"/>
<path d="M2.32486 50.1432C6.22043 58.0942 16.663 61.4405 28.2507 59.4282C18.6004 60.1763 10.1676 56.7635 6.74889 49.7862C3.36762 42.8855 6.05483 34.9146 10.4331 29.1407C15.5795 22.354 24.0173 16.482 32.6098 15.4708C33.6151 15.3526 34.6895 15.2486 35.6782 15.5049C36.7226 15.7754 37.6755 16.3396 38.7532 16.4928C39.4664 16.5943 40.2861 16.422 40.6382 15.7263C41.1267 14.7609 40.272 13.744 39.4098 13.3953C36.9315 12.3925 33.2506 13.2039 30.8106 13.9629C30.4136 14.086 29.7753 14.0427 29.8236 13.6291C29.8536 13.377 31.5904 12.7986 31.85 12.6937C32.6207 12.385 33.4096 12.1187 34.2102 11.8973C35.6799 11.492 37.1895 11.234 38.7108 11.1267C42.0538 10.8912 45.2736 11.4396 48.411 12.5423C48.8413 12.6937 49.5503 12.8236 49.9814 12.6188C50.5307 12.3584 50.5989 11.8091 50.1395 11.3913C49.9365 11.2066 49.6785 11.0951 49.4238 10.991C48.3236 10.54 47.1436 10.2645 46.0525 9.84258C48.58 8.68664 51.4702 8.71327 54.1716 9.07695C56.9096 9.44478 59.6043 10.1488 62.3622 10.3144C62.9922 10.3519 63.648 10.3569 64.2239 10.1006C64.8006 9.84424 65.2749 9.25754 65.21 8.63005C65.1543 8.09244 64.7282 7.66219 64.2605 7.39255C63.221 6.79419 61.9553 6.79253 60.7569 6.82332C57.3398 6.9132 53.9261 7.14372 50.5282 7.51323C48.6715 7.71545 46.8415 8.09494 44.9998 8.39204C44.081 8.54017 43.1589 8.67166 42.231 8.74822C41.9631 8.77069 40.8662 8.87971 40.7372 8.53268C40.361 7.51988 46.1166 6.71596 46.8431 6.57948C49.6968 6.04187 52.7285 5.93951 55.5006 5.11396C56.2355 4.89925 56.9753 4.63294 57.5628 4.14194C58.1504 3.65093 58.5648 2.89445 58.4658 2.13548C58.3643 1.35985 57.7418 0.724881 57.0194 0.426949C56.2962 0.129018 55.4873 0.119863 54.7092 0.198091C51.5485 0.514331 48.6973 2.14962 45.9036 3.66175C43.9687 4.70867 42.0105 5.71315 40.0307 6.67436C39.0412 7.15454 38.0458 7.62391 37.0455 8.08245C36.7368 8.22393 34.4682 9.47391 34.8876 8.29966C34.9683 8.08412 35.1597 7.93349 35.3395 7.78869C36.2824 7.02721 37.1138 6.12926 37.8003 5.13061C38.283 4.42905 38.6833 3.09002 37.4134 2.98433C36.9939 2.94938 36.5795 3.13579 36.2558 3.4046C35.1264 4.3425 34.1627 5.6474 33.1391 6.71263C31.9549 7.94514 30.754 9.16183 29.5182 10.3419C27.0923 12.6596 24.5291 14.8458 21.742 16.72C21.4957 16.8856 21.1237 17.0329 20.9422 16.7982C20.7908 16.6035 20.9256 16.3238 21.0604 16.1158C22.7615 13.491 24.212 10.7039 25.3879 7.80533C25.8656 6.62608 26.2359 5.1073 25.3238 4.22017C24.6356 3.55024 23.4405 3.75912 22.8422 4.44153C22.0283 5.37028 21.9392 7.20031 21.5889 8.35542C20.3705 12.3725 18.8234 16.5294 15.9124 19.6943C14.3919 21.3471 12.4687 22.508 10.8176 24.0193C9.12402 25.5697 7.5578 27.2641 6.17633 29.0991C1.74897 34.982 -1.12466 43.1044 2.32486 50.1432Z" fill="url(#paint5_linear_6126_1148)"/>
<path d="M9.88135 38.6903C9.87802 38.6836 9.88136 38.6778 9.88468 38.6712C9.88136 38.6645 9.88468 38.6587 9.88468 38.6553L12.9406 38.8051L50.3767 39.1805L13.6221 38.1427L9.97789 38.146C9.97789 38.1394 9.98121 38.1335 9.98121 38.1269C9.98121 38.1236 9.98454 38.1177 9.98454 38.1111C10.007 37.9996 10.0295 37.888 10.0544 37.7765L10.3948 36.4716C10.6303 35.676 10.9299 34.8671 11.2861 34.0649L11.2895 34.0615C11.366 33.9217 13.4956 30.0378 16.5449 27.6252L17.1466 27.6344L44.9565 28.0705L44.9216 28.0422C44.8991 28.0197 42.6363 25.9982 39.1569 23.8853C37.1105 22.6436 35.0507 21.6158 33.0359 20.8294C30.754 19.9381 28.522 19.3555 26.3932 19.0917C28.0069 18.4293 29.6339 17.9333 31.235 17.6245C32.3652 17.7968 33.5203 18.1081 34.6696 18.5125C34.6787 18.5158 34.692 18.5192 34.7012 18.5217C39.2018 20.1037 43.5817 23.0797 45.7213 24.6551C46.581 25.285 47.077 25.6928 47.077 25.6928H47.8601C73.121 25.3558 82.5425 32.4379 82.5425 32.4379L82.7972 35.9839L83.6468 36.9102L84.0255 45.6859H84.0222L84.0188 45.6892L77.2771 47.2421L74.2562 47.9362C75.0135 46.5264 75.4146 44.8994 75.3414 43.1842C75.125 38.1011 70.8275 34.1572 65.7477 34.3769C60.6645 34.5933 56.7207 38.8909 56.9404 43.9707C57.0011 45.3871 57.3764 46.7145 58.0006 47.8887L55.6579 47.9878L48.4543 48.0352H48.2696L11.8462 48.2707C11.5058 47.7805 11.2004 47.2621 10.9358 46.7236C9.75069 44.3085 9.397 41.6089 9.88135 38.6903ZM81.7486 36.2677C81.7486 36.2677 82.2479 34.4851 81.6246 33.3267C81.6246 33.3267 78.4605 30.6495 73.9374 32.6043C73.9366 32.6043 80.5543 36.0796 81.7486 36.2677Z" fill="#5D95F5"/>
<path d="M59.5386 43.7209C59.6959 47.3827 62.7909 50.2238 66.4518 50.0665C70.1135 49.9093 72.9538 46.8143 72.7974 43.1525C72.6401 39.4908 69.5451 36.6505 65.8842 36.8069C62.2225 36.9642 59.3813 40.06 59.5386 43.7209Z" fill="black"/>
<path d="M65.8832 36.792C69.5466 36.633 72.6566 39.4884 72.813 43.1517C72.972 46.8185 70.1167 49.9251 66.4533 50.0841C62.7899 50.2397 59.6799 47.3852 59.521 43.721C59.3645 40.0584 62.2198 36.9484 65.8832 36.792ZM66.45 50.0499C70.0975 49.8943 72.937 46.8002 72.7814 43.1551C72.6258 39.5075 69.5316 36.668 65.8841 36.8236C62.2398 36.9792 59.4003 40.0734 59.5559 43.721C59.7115 47.3661 62.8049 50.2056 66.45 50.0499Z" fill="#231F20"/>
<path d="M59.5386 43.7209C59.6959 47.3827 62.7909 50.2238 66.4518 50.0665C70.1135 49.9093 72.9538 46.8143 72.7974 43.1525C72.6401 39.4908 69.5451 36.6505 65.8842 36.8069C62.2225 36.9642 59.3813 40.06 59.5386 43.7209Z" fill="#5D95F5"/>
<path d="M65.8832 36.792C69.5466 36.633 72.6566 39.4884 72.813 43.1517C72.972 46.8185 70.1167 49.9251 66.4533 50.0841C62.7899 50.2397 59.6799 47.3852 59.521 43.721C59.3645 40.0584 62.2198 36.9484 65.8832 36.792ZM66.45 50.0499C70.0975 49.8943 72.937 46.8002 72.7814 43.1551C72.6258 39.5075 69.5316 36.668 65.8841 36.8236C62.2398 36.9792 59.4003 40.0734 59.5559 43.721C59.7115 47.3661 62.8049 50.2056 66.45 50.0499Z" fill="#0D2269"/>
<path d="M66.1671 50.3346C62.3583 50.3346 59.2706 47.2469 59.2706 43.4381C59.2706 39.6292 62.3583 36.5416 66.1671 36.5416C69.976 36.5416 73.0636 39.6292 73.0636 43.4381C73.0636 47.2469 69.976 50.3346 66.1671 50.3346Z" fill="#5D95F5"/>
<path d="M43.8356 46.3134C42.7807 46.3134 41.9256 45.4583 41.9256 44.4034C41.9256 43.3486 42.7807 42.4935 43.8356 42.4935C44.8904 42.4935 45.7455 43.3486 45.7455 44.4034C45.7455 45.4583 44.8904 46.3134 43.8356 46.3134Z" fill="white"/>
<path d="M56.1439 33.8993C55.0891 33.8993 54.234 33.0442 54.234 31.9894C54.234 30.9345 55.0891 30.0794 56.1439 30.0794C57.1988 30.0794 58.0539 30.9345 58.0539 31.9894C58.0539 33.0442 57.1988 33.8993 56.1439 33.8993Z" fill="white"/>
<path d="M32.907 35.9149C31.6766 35.9149 30.6791 34.9175 30.6791 33.6871C30.6791 32.4567 31.6766 31.4592 32.907 31.4592C34.1374 31.4592 35.1348 32.4567 35.1348 33.6871C35.1348 34.9175 34.1374 35.9149 32.907 35.9149Z" fill="white"/>
<path d="M54.1275 4.41653C53.1825 4.41653 52.4165 3.65048 52.4165 2.70551C52.4165 1.76054 53.1825 0.994484 54.1275 0.994484C55.0725 0.994484 55.8385 1.76054 55.8385 2.70551C55.8385 3.65048 55.0725 4.41653 54.1275 4.41653Z" fill="white"/>
<defs>
<linearGradient id="paint0_linear_6126_1148" x1="41.1865" y1="0.0247493" x2="41.1865" y2="3.39013" gradientUnits="userSpaceOnUse">
<stop stop-color="#287ECB"/>
<stop offset="1" stop-color="#35CCF9"/>
</linearGradient>
<linearGradient id="paint1_linear_6126_1148" x1="42.1516" y1="1.0641" x2="40.4194" y2="1.0641" gradientUnits="userSpaceOnUse">
<stop stop-color="#4F8DF7"/>
<stop offset="1" stop-color="#35CCF9"/>
</linearGradient>
<linearGradient id="paint2_linear_6126_1148" x1="53.7186" y1="16.9531" x2="40.9302" y2="16.9531" gradientUnits="userSpaceOnUse">
<stop stop-color="#287ECB"/>
<stop offset="1" stop-color="#35CCF9"/>
</linearGradient>
<linearGradient id="paint3_linear_6126_1148" x1="62.6051" y1="16.081" x2="50.9353" y2="16.081" gradientUnits="userSpaceOnUse">
<stop stop-color="#287ECB"/>
<stop offset="1" stop-color="#35CCF9"/>
</linearGradient>
<linearGradient id="paint4_linear_6126_1148" x1="48.4533" y1="47.9942" x2="48.2687" y2="47.9942" gradientUnits="userSpaceOnUse">
<stop stop-color="#287ECB"/>
<stop offset="1" stop-color="#35CCF9"/>
</linearGradient>
<linearGradient id="paint5_linear_6126_1148" x1="65.2163" y1="30.0799" x2="0.797543" y2="30.0799" gradientUnits="userSpaceOnUse">
<stop stop-color="#287ECB"/>
<stop offset="1" stop-color="#5D95F5"/>
</linearGradient>
</defs>
</svg>
